<mxfile host="app.diagrams.net" modified="2023-07-29T16:33:06.581Z" agent="Mozilla/5.0 (Windows NT 10.0; Win64; x64) AppleWebKit/537.36 (KHTML, like Gecko) Chrome/115.0.0.0 Safari/537.36" etag="HorPGOh1BypFvCHaVU-E" version="21.6.6" type="device">
  <diagram name="Page-1" id="DTOBlRzNxstVOYfJ-7JD">
    <mxGraphModel dx="880" dy="516" grid="0" gridSize="169" guides="1" tooltips="1" connect="1" arrows="1" fold="1" page="1" pageScale="1" pageWidth="1100" pageHeight="850" background="#67AB9F" math="0" shadow="0">
      <root>
        <mxCell id="0" />
        <mxCell id="1" parent="0" />
        <mxCell id="eTlnWa0YIq0I3e1H6CIE-24" style="edgeStyle=orthogonalEdgeStyle;rounded=0;orthogonalLoop=1;jettySize=auto;html=1;exitX=0;exitY=0;exitDx=0;exitDy=0;entryX=0.392;entryY=0;entryDx=0;entryDy=0;entryPerimeter=0;" edge="1" parent="1" source="eTlnWa0YIq0I3e1H6CIE-1" target="eTlnWa0YIq0I3e1H6CIE-4">
          <mxGeometry relative="1" as="geometry" />
        </mxCell>
        <mxCell id="eTlnWa0YIq0I3e1H6CIE-26" value="&lt;span style=&quot;font-size: 16px;&quot;&gt;&lt;font color=&quot;#0c662a&quot;&gt;&lt;b&gt;Validate information&lt;/b&gt;&lt;/font&gt;&lt;br&gt;&lt;/span&gt;" style="edgeLabel;html=1;align=center;verticalAlign=middle;resizable=0;points=[];" vertex="1" connectable="0" parent="eTlnWa0YIq0I3e1H6CIE-24">
          <mxGeometry x="-0.0812" relative="1" as="geometry">
            <mxPoint as="offset" />
          </mxGeometry>
        </mxCell>
        <mxCell id="eTlnWa0YIq0I3e1H6CIE-31" style="edgeStyle=orthogonalEdgeStyle;rounded=0;orthogonalLoop=1;jettySize=auto;html=1;exitX=0.5;exitY=1;exitDx=0;exitDy=0;entryX=0.5;entryY=1;entryDx=0;entryDy=0;" edge="1" parent="1" source="eTlnWa0YIq0I3e1H6CIE-1" target="eTlnWa0YIq0I3e1H6CIE-2">
          <mxGeometry relative="1" as="geometry" />
        </mxCell>
        <mxCell id="eTlnWa0YIq0I3e1H6CIE-32" value="&lt;font color=&quot;#00ff00&quot; style=&quot;font-size: 18px;&quot;&gt;&lt;b&gt;Delivery Details&amp;nbsp;&lt;/b&gt;&lt;/font&gt;" style="edgeLabel;html=1;align=center;verticalAlign=middle;resizable=0;points=[];" vertex="1" connectable="0" parent="eTlnWa0YIq0I3e1H6CIE-31">
          <mxGeometry x="-0.0937" y="-1" relative="1" as="geometry">
            <mxPoint as="offset" />
          </mxGeometry>
        </mxCell>
        <mxCell id="eTlnWa0YIq0I3e1H6CIE-1" value="&lt;span style=&quot;font-size: 23px;&quot;&gt;&lt;b&gt;Flipcart&lt;br&gt;&lt;/b&gt;&lt;/span&gt;" style="ellipse;whiteSpace=wrap;html=1;" vertex="1" parent="1">
          <mxGeometry x="330" y="190" width="160" height="160" as="geometry" />
        </mxCell>
        <mxCell id="eTlnWa0YIq0I3e1H6CIE-7" style="edgeStyle=orthogonalEdgeStyle;rounded=0;orthogonalLoop=1;jettySize=auto;html=1;exitX=0.5;exitY=0;exitDx=0;exitDy=0;entryX=1;entryY=0.313;entryDx=0;entryDy=0;entryPerimeter=0;" edge="1" parent="1" source="eTlnWa0YIq0I3e1H6CIE-2" target="eTlnWa0YIq0I3e1H6CIE-1">
          <mxGeometry relative="1" as="geometry">
            <Array as="points">
              <mxPoint x="680" y="240" />
            </Array>
          </mxGeometry>
        </mxCell>
        <mxCell id="eTlnWa0YIq0I3e1H6CIE-12" value="&lt;font color=&quot;#ff3705&quot; style=&quot;font-size: 14px;&quot;&gt;&lt;b&gt;Order detail&lt;/b&gt;&lt;/font&gt;" style="edgeLabel;html=1;align=center;verticalAlign=middle;resizable=0;points=[];" vertex="1" connectable="0" parent="eTlnWa0YIq0I3e1H6CIE-7">
          <mxGeometry x="0.2605" y="2" relative="1" as="geometry">
            <mxPoint x="15" y="-2" as="offset" />
          </mxGeometry>
        </mxCell>
        <mxCell id="eTlnWa0YIq0I3e1H6CIE-2" value="&lt;font style=&quot;font-size: 17px;&quot;&gt;Customer&lt;/font&gt;" style="rounded=1;whiteSpace=wrap;html=1;" vertex="1" parent="1">
          <mxGeometry x="620" y="280" width="120" height="60" as="geometry" />
        </mxCell>
        <mxCell id="eTlnWa0YIq0I3e1H6CIE-21" style="edgeStyle=orthogonalEdgeStyle;rounded=0;orthogonalLoop=1;jettySize=auto;html=1;exitX=0;exitY=0;exitDx=0;exitDy=0;" edge="1" parent="1" source="eTlnWa0YIq0I3e1H6CIE-3">
          <mxGeometry relative="1" as="geometry">
            <mxPoint x="430" y="180" as="targetPoint" />
          </mxGeometry>
        </mxCell>
        <mxCell id="eTlnWa0YIq0I3e1H6CIE-22" value="&lt;font color=&quot;#26ff1f&quot; style=&quot;font-size: 14px;&quot;&gt;&lt;b&gt;Product details&lt;/b&gt;&lt;/font&gt;" style="edgeLabel;html=1;align=center;verticalAlign=middle;resizable=0;points=[];" vertex="1" connectable="0" parent="eTlnWa0YIq0I3e1H6CIE-21">
          <mxGeometry x="-0.2656" relative="1" as="geometry">
            <mxPoint as="offset" />
          </mxGeometry>
        </mxCell>
        <mxCell id="eTlnWa0YIq0I3e1H6CIE-3" value="&lt;font style=&quot;font-size: 18px;&quot;&gt;seller&lt;/font&gt;" style="rounded=1;whiteSpace=wrap;html=1;" vertex="1" parent="1">
          <mxGeometry x="610" y="70" width="120" height="60" as="geometry" />
        </mxCell>
        <mxCell id="eTlnWa0YIq0I3e1H6CIE-27" style="edgeStyle=orthogonalEdgeStyle;rounded=0;orthogonalLoop=1;jettySize=auto;html=1;exitX=0.5;exitY=1;exitDx=0;exitDy=0;entryX=0.125;entryY=0.813;entryDx=0;entryDy=0;entryPerimeter=0;" edge="1" parent="1" source="eTlnWa0YIq0I3e1H6CIE-4" target="eTlnWa0YIq0I3e1H6CIE-1">
          <mxGeometry relative="1" as="geometry" />
        </mxCell>
        <mxCell id="eTlnWa0YIq0I3e1H6CIE-28" value="&lt;font color=&quot;#33ff33&quot; style=&quot;font-size: 15px;&quot;&gt;&lt;b&gt;Transaction&amp;nbsp;&lt;/b&gt;&lt;/font&gt;" style="edgeLabel;html=1;align=center;verticalAlign=middle;resizable=0;points=[];" vertex="1" connectable="0" parent="eTlnWa0YIq0I3e1H6CIE-27">
          <mxGeometry x="-0.0004" y="2" relative="1" as="geometry">
            <mxPoint as="offset" />
          </mxGeometry>
        </mxCell>
        <mxCell id="eTlnWa0YIq0I3e1H6CIE-4" value="&lt;font style=&quot;font-size: 17px;&quot;&gt;Admin&lt;/font&gt;" style="rounded=1;whiteSpace=wrap;html=1;" vertex="1" parent="1">
          <mxGeometry x="60" y="240" width="120" height="60" as="geometry" />
        </mxCell>
        <mxCell id="eTlnWa0YIq0I3e1H6CIE-18" value="" style="endArrow=classic;html=1;rounded=0;" edge="1" parent="1">
          <mxGeometry width="50" height="50" relative="1" as="geometry">
            <mxPoint x="470" y="220" as="sourcePoint" />
            <mxPoint x="600" y="130" as="targetPoint" />
          </mxGeometry>
        </mxCell>
        <mxCell id="eTlnWa0YIq0I3e1H6CIE-19" value="&lt;font color=&quot;#f90b0b&quot; style=&quot;font-size: 13px;&quot;&gt;&lt;b&gt;Sales details&lt;/b&gt;&lt;/font&gt;" style="edgeLabel;html=1;align=center;verticalAlign=middle;resizable=0;points=[];rotation=-35;" vertex="1" connectable="0" parent="eTlnWa0YIq0I3e1H6CIE-18">
          <mxGeometry x="-0.0256" y="-5" relative="1" as="geometry">
            <mxPoint x="-6" as="offset" />
          </mxGeometry>
        </mxCell>
      </root>
    </mxGraphModel>
  </diagram>
</mxfile>
